<svg xmlns="http://www.w3.org/2000/svg" width="16" height="16" fill="none" viewBox="0 0 16 16"><path fill="#fff" d="M8 2.42c.96 0 1.74.77 1.74 1.71S8.96 5.83 8 5.83s-1.74-.76-1.74-1.7S7.04 2.42 8 2.42Zm0 5.84a4.18 4.18 0 0 0 4.21-4.13A4.18 4.18 0 0 0 8 0a4.17 4.17 0 0 0-4.21 4.13A4.17 4.17 0 0 0 8 8.26Zm1.7 3.37c.86-.2 1.69-.53 2.45-1 .58-.35.75-1.1.39-1.66a1.25 1.25 0 0 0-1.7-.39 5.44 5.44 0 0 1-5.68 0 1.24 1.24 0 0 0-1.7.39 1.2 1.2 0 0 0 .39 1.66c.76.47 1.59.8 2.45 1l-2.36 2.3a1.2 1.2 0 0 0 0 1.71 1.25 1.25 0 0 0 1.75 0L8 13.38l2.32 2.26c.48.48 1.26.48 1.74 0a1.2 1.2 0 0 0 0-1.7L9.7 11.62Z"/></svg>