<svg xmlns="http://www.w3.org/2000/svg" width="16" height="16" fill="none" viewBox="0 0 16 16"><path fill="#fff" d="M9.41.36c-.46 0-.9.25-1.18.61-.28.36-.44.8-.55 1.26-.18.74-.23 1.56-.25 2.3-1.3.09-2.5.5-3.48 1.13-.4-.36-.88-.55-1.34-.55-.53 0-1.03.25-1.4.73-.71.94-.63 2.47.2 3.37a4.8 4.8 0 0 0-.1.86c0 3.08 3 5.57 6.69 5.57 3.7 0 6.68-2.5 6.68-5.57 0-.29-.03-.58-.08-.86.82-.9.9-2.43.2-3.37a1.75 1.75 0 0 0-1.4-.73c-.47 0-.95.2-1.35.55a7.4 7.4 0 0 0-3.47-1.13c.02-.69.07-1.4.2-1.93.08-.33.18-.58.28-.7.1-.14.18-.2.35-.2.38 0 .43.13.66.44.11.16.25.35.46.55.21.19.52.35.87.35V1.7c-.1 0-.12 0-.18-.06-.07-.06-.15-.2-.28-.38-.27-.36-.77-.9-1.53-.9ZM13.1.5c-.88 0-1.59.84-1.59 1.88s.71 1.88 1.6 1.88c.87 0 1.58-.84 1.58-1.88S13.98.5 13.1.5Zm0 .67c.57 0 1.03.54 1.03 1.21 0 .67-.46 1.22-1.03 1.22-.56 0-1.02-.55-1.02-1.22 0-.67.46-1.21 1.02-1.21ZM8 5.57c3.13 0 5.78 2.07 5.78 4.5 0 2.44-2.65 4.5-5.78 4.5-3.13 0-5.78-2.06-5.78-4.5 0-2.43 2.65-4.5 5.78-4.5Zm-5.38.61c.16 0 .32.04.48.13a5.45 5.45 0 0 0-1.33 1.75c-.2-.52-.15-1.16.11-1.5a.9.9 0 0 1 .74-.38Zm10.76 0a.9.9 0 0 1 .74.38c.26.34.32.98.1 1.5a5.45 5.45 0 0 0-1.32-1.75c.16-.09.32-.13.48-.13ZM5.74 7.85c-.57 0-1.03.55-1.03 1.22 0 .67.46 1.21 1.03 1.21.56 0 1.02-.54 1.02-1.21 0-.67-.46-1.22-1.02-1.22Zm4.52 0c-.56 0-1.02.55-1.02 1.22 0 .67.46 1.21 1.02 1.21.57 0 1.03-.54 1.03-1.21 0-.67-.46-1.22-1.03-1.22ZM5.2 11.98A3.1 3.1 0 0 0 8 13.7c1.34 0 2.47-.85 2.83-1.74-.65.5-1.69.84-2.83.84a4.73 4.73 0 0 1-2.81-.84Z"/></svg>